<svg xmlns="http://www.w3.org/2000/svg" xmlns:xlink="http://www.w3.org/1999/xlink" viewBox="0 0 219.02 199.03"><defs><style>.cls-1{fill:url(#Dégradé_sans_nom_41);}.cls-2{fill:url(#Dégradé_sans_nom_41-2);}.cls-3{fill:url(#Dégradé_sans_nom_41-3);}.cls-4{fill:url(#Dégradé_sans_nom_41-4);}.cls-5{fill:url(#Dégradé_sans_nom_41-5);}</style><linearGradient id="Dégradé_sans_nom_41" x1="41.43" y1="99.52" x2="135.99" y2="99.52" gradientUnits="userSpaceOnUse"><stop offset="0" stop-color="#00b9f1"/><stop offset="0.01" stop-color="#02b7ef"/><stop offset="0.18" stop-color="#15a2d6"/><stop offset="0.33" stop-color="#2095c7"/><stop offset="0.46" stop-color="#2491c2"/><stop offset="0.54" stop-color="#2e9ac7"/><stop offset="0.68" stop-color="#48b2d4"/><stop offset="0.85" stop-color="#72d9ea"/><stop offset="1" stop-color="#9bffff"/></linearGradient><linearGradient id="Dégradé_sans_nom_41-2" x1="0" y1="99.41" x2="53.42" y2="99.41" xlink:href="#Dégradé_sans_nom_41"/><linearGradient id="Dégradé_sans_nom_41-3" x1="124.31" y1="171.51" x2="177.54" y2="171.51" xlink:href="#Dégradé_sans_nom_41"/><linearGradient id="Dégradé_sans_nom_41-4" x1="165.74" y1="99.44" x2="219.02" y2="99.44" xlink:href="#Dégradé_sans_nom_41"/><linearGradient id="Dégradé_sans_nom_41-5" x1="124.3" y1="27.44" x2="177.6" y2="27.44" xlink:href="#Dégradé_sans_nom_41"/></defs><g id="Calque_2" data-name="Calque 2"><g id="Calque_2-2" data-name="Calque 2"><path class="cls-1" d="M136,103.31c-.23,6.07-4.46,13.49-12.69,18.57a59.22,59.22,0,0,0-21.43,22.74,60.88,60.88,0,0,0-7.11,28.95c-.07,9.86-7.18,19.76-16.86,23.59A26.57,26.57,0,0,1,41.77,176c-1.47-11.4,2.82-20.38,12.44-26.78,2.79-1.86,5-4.4,7.62-6.51a55.32,55.32,0,0,0,20.09-35.93c1.68-13-1.17-25-7.76-36.29a61.3,61.3,0,0,0-20.43-21C38.14,39.55,37.22,17,51.79,5.56A26.64,26.64,0,0,1,90.23,11.8a25.73,25.73,0,0,1,4.51,14.52,57.8,57.8,0,0,0,8.33,30.28,67.76,67.76,0,0,0,14.36,16.23c3.35,2.88,7.38,4.79,10.59,7.88C133.42,85.92,136.14,92.2,136,103.31Z"/><path class="cls-2" d="M26.57,126.18A26.78,26.78,0,1,1,53.42,99.43,26.72,26.72,0,0,1,26.57,126.18Z"/><path class="cls-3" d="M151,144.81c14.8-.35,26.54,12.6,26.51,26.14,0,15.56-11.5,27.25-26.93,27.27-14.76,0-26.09-12.31-26.3-26.08A26.48,26.48,0,0,1,151,144.81Z"/><path class="cls-4" d="M192,126.18c-14.81-.07-26.54-12.13-26.28-27.4a26.4,26.4,0,0,1,25.81-26.07C208,72.3,218.92,85.37,219,99.54A26.7,26.7,0,0,1,192,126.18Z"/><path class="cls-5" d="M150.94.74c14.76-.55,27,12.7,26.65,27.4-.34,14-12.29,26-26.32,26a26.61,26.61,0,0,1-27-27C124.39,11.39,137.52.24,150.94.74Z"/></g></g></svg>